<?xml version="1.0" encoding="UTF-8" standalone="no"?><!DOCTYPE svg PUBLIC "-//W3C//DTD SVG 1.1//EN" "http://www.w3.org/Graphics/SVG/1.1/DTD/svg11.dtd"><svg width="100%" height="100%" viewBox="0 0 439 137" version="1.1" xmlns="http://www.w3.org/2000/svg" xmlns:xlink="http://www.w3.org/1999/xlink" xml:space="preserve" xmlns:serif="http://www.serif.com/" style="fill-rule:evenodd;clip-rule:evenodd;stroke-linejoin:round;stroke-miterlimit:1.41421;"><path d="M366,114c0.308,11.071 9.6,13.797 27,9l2,9c-18.569,4.155 -28.894,1.547 -34.932,-4.07c-4.115,-3.829 -5.17,-11.958 -5.032,-17.393c0.126,-4.955 0.638,-10.864 4.812,-16.367c3.904,-5.146 9.343,-6.854 15.699,-7.122c5.833,-0.246 13.921,1.701 17.609,8.122c2.427,4.224 2.74,11.511 1.844,18.83l-29,0Zm1,-8l17,0c1.564,-13.527 -16.848,-15.325 -17,0Z" style="fill:#fff;"/><path d="M406,88l12,0l0,4c6.359,-5.88 11.853,-6.083 17,-4l0,9c-6.84,-2.314 -12.037,0.098 -17,4l0,32.887l-12,0l0,-45.887Z" style="fill:#fff;"/><path id="K" d="M310,87.048l11,0l0,18.952l1,0l14,-18l13,0c0,0 -12.111,15.139 -15.259,19.074c-0.48,0.599 -0.741,1.344 -0.741,2.112c0,0.009 0,0.019 0,0.028c0,0.525 0.122,1.043 0.357,1.513c3.359,6.655 9.117,14.073 16.643,14.353l0,8.807c-13.85,1.944 -25.47,-17.164 -28,-20.887l-1,0l0,20l-11,0l0,-45.952Z" style="fill:#fff;"/><path d="M260,90c15.61,-4.702 27.337,-4.416 32.637,3.315c0.879,1.263 1.351,2.765 1.351,4.303c0.012,5.986 0.012,24.639 0.012,25.36c-0.001,0.047 0.003,0.093 0.011,0.138c0.299,1.652 1.843,2.345 3.989,1.884l0,8c0,0 -5.694,0 -8.024,0c-2.327,0 -4.36,-1.577 -4.939,-3.832c-0.01,-0.056 -0.024,-0.112 -0.037,-0.168c-6.089,8.951 -28.978,5.214 -29,-8c-0.009,-5.527 2.265,-9.261 6.309,-11.604c2.651,-1.559 5.671,-2.381 8.746,-2.381c4.109,-0.015 12.945,-0.015 12.945,-0.015l0,-6c0.438,-5.641 -4.976,-7.289 -23,-3l-1,-8Zm24,24l0,8c-10.467,6.607 -20.544,1.536 -15.589,-5.352c1.195,-1.663 3.117,-2.648 5.165,-2.648c3.79,0 10.424,0 10.424,0Z" style="fill:#fff;"/><rect id="i" x="3" y="88" width="12" height="45" style="fill:#fff;"/><path d="M206,100c-2.068,-4.794 -8.845,-3.347 -17,0l0,33l-11,0l0,-45l11,0l0,5c9.628,-7.416 22.038,-8.755 27,0c10.023,-10.178 29.606,-8.078 30,5l0,35l-11,0l0,-32c-2.025,-6.99 -9.533,-3.95 -17,-1l0,33l-12,0l0,-33Z" style="fill:#fff;"/><path d="M145.406,87.048c-12.694,0.709 -22.484,10.006 -22.27,23.676c0.205,13.111 9.71,23.839 22.27,23.839c12.561,0 22.319,-10.647 22.514,-23.757c0.212,-14.187 -9.71,-24.473 -22.514,-23.758Zm12,23.258c0,-8.01 -5.377,-14.512 -12,-14.512c-6.623,0 -12,6.502 -12,14.512c0,8.009 5.377,14.999 12,14.999c6.623,0 12,-6.99 12,-14.999Z" style="fill:#fff;"/><path d="M28,133l0,-45l11,0l0,5c15.504,-10.651 29.731,-6.412 29.999,7.974l0.001,0l0,32.026l-11,0l0,-32c-2.459,-6.463 -9.999,-4.877 -19,-1l0,33l-11,0Z" style="fill:#fff;"/><path id="C" d="M116,133c-27.707,6.344 -37.192,-7.15 -37.122,-21.54c0.074,-15.208 14.319,-31.252 37.122,-21.46l-2,8c-29.227,-12.461 -33.448,34.505 0,26l2,9" style="fill:#fff;"/><g><path d="M4,77l11,0c1.734,-19.329 11.174,-31.238 27,-37l-3,-10c-21.751,6.9 -34.551,21.581 -35,47Z" style="fill:#fff;"/><path d="M53,19l-10,-8l23,-8l4,4c17.761,-4.246 35.039,-6.303 39,1c2.661,9.888 -11.296,19.054 -29,28l0,5l-23,9l3,-13l4,-3l-6,-15l-5,0Zm29.435,-5.196c3.907,-1.923 8.004,-1.604 9.144,0.711c1.14,2.316 -1.107,5.757 -5.014,7.681c-3.907,1.923 -8.004,1.604 -9.144,-0.711c-1.14,-2.316 1.107,-5.757 5.014,-7.681Z" style="fill:#fff;"/></g></svg>